G04*
G04 #@! TF.GenerationSoftware,Altium Limited,Altium Designer,20.0.1 (14)*
G04*
G04 Layer_Color=65535*
%FSLAX25Y25*%
%MOIN*%
G70*
G01*
G75*
%ADD10C,0.01000*%
%ADD11C,0.00500*%
D10*
X105949Y68712D02*
G03*
X105949Y68712I-316J0D01*
G01*
X73942Y112960D02*
Y116897D01*
X102288D01*
Y112960D02*
Y116897D01*
X99396Y59206D02*
Y71017D01*
X107270Y59206D02*
Y71017D01*
X53901Y95474D02*
Y99017D01*
X50752D02*
X53901D01*
X50752Y87206D02*
X53901D01*
Y90750D01*
X39218Y90998D02*
Y96612D01*
X1618Y90998D02*
X39218D01*
X1718Y112512D02*
X34118D01*
X-3082Y109312D02*
X18D01*
X-3082Y106512D02*
Y109312D01*
X36018D02*
X39218D01*
Y104612D02*
Y109312D01*
D11*
X98933Y48712D02*
X107033D01*
X98233Y48012D02*
X98933Y48712D01*
X98233Y37512D02*
Y48012D01*
Y37512D02*
X107033D01*
Y48712D01*
X85402Y79764D02*
X91701D01*
X85402D02*
Y80158D01*
X91701Y79764D02*
Y80158D01*
X86951Y91182D02*
X91701D01*
Y90788D02*
Y91182D01*
X85351Y91173D02*
X85451D01*
X-548Y22666D02*
Y75028D01*
X28979D01*
Y25011D02*
Y75028D01*
X26634Y22666D02*
X28979Y25011D01*
X-548Y22666D02*
X26634D01*
X41656Y76430D02*
X96774D01*
X41656Y21312D02*
Y76430D01*
Y21312D02*
X95256D01*
X96774Y22830D01*
Y76430D01*
X13939Y85712D02*
X14727D01*
X13939Y83712D02*
X14727D01*
X21839D02*
X22627D01*
X21839Y85712D02*
X22627D01*
X100339Y88512D02*
X101127D01*
X100339Y90512D02*
X101127D01*
X67333Y95118D02*
Y95906D01*
X65333Y95118D02*
Y95906D01*
X63333Y95118D02*
Y95906D01*
X61333Y95118D02*
Y95906D01*
X100339Y86512D02*
X101127D01*
X100339Y84512D02*
X101127D01*
X-4285Y54977D02*
Y55765D01*
X-2285Y54977D02*
Y55765D01*
Y26477D02*
Y27264D01*
X-4285Y26477D02*
Y27264D01*
X33321Y32871D02*
X34108D01*
X33321Y34871D02*
X34108D01*
X33321Y27871D02*
X34108D01*
X33321Y25871D02*
X34108D01*
X-4285Y47877D02*
Y48665D01*
X-2285Y47877D02*
Y48665D01*
X75933Y83898D02*
Y87048D01*
X73571Y83898D02*
Y87048D01*
X78295Y83898D02*
Y87048D01*
X104633Y28818D02*
Y29605D01*
X105633Y28818D02*
Y29605D01*
X103633Y28818D02*
Y29605D01*
X50558Y82312D02*
X53708D01*
X50558Y84674D02*
X53708D01*
X50558Y79950D02*
X53708D01*
X6039Y83712D02*
Y85712D01*
X6827Y83712D02*
Y85712D01*
X105333Y87906D02*
X107333D01*
X105333Y87118D02*
X107333D01*
X68800Y81806D02*
X70800D01*
X68800Y82594D02*
X70800D01*
X68800Y89994D02*
X70800D01*
X68800Y89206D02*
X70800D01*
X104727Y80212D02*
Y82212D01*
X103939Y80212D02*
Y82212D01*
X64727Y88412D02*
Y90412D01*
X63939Y88412D02*
Y90412D01*
X61233Y81818D02*
X63233D01*
X61233Y82605D02*
X63233D01*
X99633Y28818D02*
X101633D01*
X99633Y29605D02*
X101633D01*
X103027Y22612D02*
Y24612D01*
X102239Y22612D02*
Y24612D01*
Y50512D02*
Y52512D01*
X103027Y50512D02*
Y52512D01*
X102239Y33612D02*
Y35612D01*
X103027Y33612D02*
Y35612D01*
X2827Y77712D02*
Y79712D01*
X2039Y77712D02*
Y79712D01*
X-4267Y77105D02*
X-2267D01*
X-4267Y76318D02*
X-2267D01*
X-4285Y41565D02*
X-2285D01*
X-4285Y40777D02*
X-2285D01*
X-4285Y33677D02*
X-2285D01*
X-4285Y34464D02*
X-2285D01*
X-4285Y69177D02*
X-2285D01*
X-4285Y69964D02*
X-2285D01*
X34108Y72371D02*
Y74371D01*
X33321Y72371D02*
Y74371D01*
X34108Y39871D02*
Y41871D01*
X33321Y39871D02*
Y41871D01*
X34108Y22371D02*
Y24371D01*
X33321Y22371D02*
Y24371D01*
X34108Y36371D02*
Y38371D01*
X33321Y36371D02*
Y38371D01*
Y29371D02*
Y31371D01*
X34108Y29371D02*
Y31371D01*
Y43371D02*
Y45371D01*
X33321Y43371D02*
Y45371D01*
X-4285Y62077D02*
X-2285D01*
X-4285Y62865D02*
X-2285D01*
M02*
